<?xml version="1.0" encoding="utf-8"?>
<!-- Generator: Adobe Illustrator 24.0.1, SVG Export Plug-In . SVG Version: 6.00 Build 0)  -->
<svg version="1.1" id="Camada_1" xmlns="http://www.w3.org/2000/svg" xmlns:xlink="http://www.w3.org/1999/xlink" x="0px" y="0px"
	 viewBox="0 0 117 64.68" style="enable-background:new 0 0 117 64.68;" xml:space="preserve">
<style type="text/css">
	.st0{clip-path:url(#SVGID_38_);}
	.st1{clip-path:url(#SVGID_39_);}
	.st2{clip-path:url(#SVGID_40_);}
	.st3{clip-path:url(#SVGID_41_);}
	.st4{clip-path:url(#SVGID_42_);}
	.st5{clip-path:url(#SVGID_43_);}
	.st6{clip-path:url(#SVGID_44_);}
	.st7{clip-path:url(#SVGID_45_);}
	.st8{clip-path:url(#SVGID_46_);}
	.st9{clip-path:url(#SVGID_47_);}
	.st10{clip-path:url(#SVGID_48_);}
	.st11{clip-path:url(#SVGID_49_);}
	.st12{clip-path:url(#SVGID_50_);}
	.st13{clip-path:url(#SVGID_51_);}
	.st14{clip-path:url(#SVGID_52_);}
	.st15{clip-path:url(#SVGID_53_);}
	.st16{clip-path:url(#SVGID_54_);}
	.st17{clip-path:url(#SVGID_55_);}
	.st18{clip-path:url(#SVGID_56_);}
	.st19{clip-path:url(#SVGID_57_);}
	.st20{clip-path:url(#SVGID_58_);}
	.st21{clip-path:url(#SVGID_59_);}
	.st22{clip-path:url(#SVGID_60_);}
	.st23{clip-path:url(#SVGID_61_);}
	.st24{clip-path:url(#SVGID_62_);}
	.st25{clip-path:url(#SVGID_63_);}
	.st26{clip-path:url(#SVGID_64_);}
	.st27{clip-path:url(#SVGID_65_);}
	.st28{clip-path:url(#SVGID_66_);}
	.st29{clip-path:url(#SVGID_67_);}
	.st30{clip-path:url(#SVGID_68_);}
	.st31{clip-path:url(#SVGID_69_);}
	.st32{clip-path:url(#SVGID_70_);}
	.st33{clip-path:url(#SVGID_71_);}
	.st34{clip-path:url(#SVGID_72_);}
	.st35{clip-path:url(#SVGID_73_);}
</style>
<rect x="-0.03" y="-0.02" width="117" height="64.68"/>
<g>
	<defs>
		<path id="SVGID_1_" d="M34.66,25.27c-1.05-3.03-3.88-3.03-3.88-3.03s2.81,1.01,1.69,9.45c-1.11,8.32-5.06,21.78-7.44,26.68
			c0.09,0.06,0.18,0.12,0.26,0.19c1.5-2.54,4.53-8.54,6.39-14.97c1.8-6.23,3.38-9.5,3.38-15.73C35.05,26.82,34.9,25.96,34.66,25.27"
			/>
	</defs>
	<defs>
		<path id="SVGID_2_" d="M33.75,36.76c0,0,3.55-2.37,4.9-4.1c1.35-1.73,2.77-5.18,2.93-6.9c0.15-1.73-0.6-3.53-1.43-3.53
			c-0.83,0-4.23,1.79-5.49,3.03c-1.26,1.25,0.09,0.42,0.09,0.42l3.37-1.88c0.38,0.07,0.67,2.62,0.15,4.8
			c-0.53,2.18-1.53,4.98-4.19,6.94L33.75,36.76z"/>
	</defs>
	<defs>
		<path id="SVGID_3_" d="M31.45,37.66c-1,0.01-1.86,0.78-2.9,0.48c0.09,0.16,0.18,0.31,0.26,0.47c0.1-0.35,0.61-0.52,0.92-0.63
			c0.52-0.18,1.06-0.27,1.6-0.34c0.46-0.05,0.99,0.03,1.44-0.08c0.33-0.08,0.73-0.42,0.33-0.74c-0.36-0.3-0.86-0.21-1.29-0.17
			c-0.54,0.06-1.07,0.18-1.59,0.32c-0.75,0.2-1.9,0.57-2.14,1.42c-0.05,0.2,0.07,0.41,0.27,0.47c0.97,0.27,2.62-0.19,3.19-1.07
			C31.58,37.75,31.53,37.66,31.45,37.66"/>
	</defs>
	<defs>
		<path id="SVGID_4_" d="M33.75,36.76c0,0,1.75-0.22,2.8,0.35c1.05,0.58,1.5,0.58,2.1,2.68c0.6,2.1,1.77,8.48,2.53,10.18
			c1.82,4.09,5.35,4.96,11.42,3.66c5.16-1.11,10.11-6.17,16.93-9.96c5.6-3.11,16.84-7.75,21.05-6.81c4.22,0.95,2.04,5.45,1.01,6.45
			c-1.65,1.59-4.24,2.16-7.58,1.42c-2.85-0.62-2.78-5.24-2.62-6.69l1.27-0.09c0,0-0.24,3.76,1.06,5.73c0.79,1.2,4.55,0.6,5.84-0.04
			C90.91,43,92.81,41.41,91.8,39c-0.79-1.89-3.37-1.84-5.16-1.47c-1.79,0.38-3.97,1.05-3.97,1.05l-2.78,1.12
			c0,0-7.28,3.23-10.65,5.4c-2.26,1.45-6.44,4.29-8.69,5.76c-1.95,1.28-7.35,4.83-16.14,3.84c-3.91-0.44-5.63-4.21-6.75-7.57
			c-1.12-3.36-1.65-8.9-2.33-9.29c-0.68-0.39-1.83-0.28-1.83-0.28L33.75,36.76z"/>
	</defs>
	<defs>
		<path id="SVGID_5_" d="M83.54,14.37c0,0,1.91,1.18,2.19,2.87c0,0-0.34,5.18-1.07,9.28c-0.73,4.11-1.88,9.78-1.94,11.11
			c-0.06,1.37-1.36,0.47-1.36,0.47c0.78-6.79,0.78-6.8,1.1-8.61c0.34-1.91,1.52-11.19,1.41-12.43c-0.11-1.24-1.18-2.25-1.01-2.7
			C83.03,13.92,83.54,14.37,83.54,14.37"/>
	</defs>
	<defs>
		<path id="SVGID_6_" d="M78.7,13.74c-0.27,0.33,0.19,0.57,0.45,0.65c0.32,0.11,0.68,0.13,0.99-0.02c-0.09,0.01-0.18,0.02-0.27,0.04
			c0.35,0.06,0.67-0.21,0.68-0.56c0.02-0.31-0.21-0.57-0.48-0.69c-0.66-0.31-1.56-0.08-1.63,0.75c-0.03,0.36,0.38,0.63,0.7,0.54
			c0.04-0.01,0.08-0.02,0.12-0.04c0.32-0.11,0.42-0.41,0.29-0.71c-0.06-0.13-0.15-0.2-0.27-0.27c0.07,0.26,0.14,0.51,0.2,0.76
			c0.01-0.02,0.12-0.19,0.02-0.08c0.05-0.04,0.04-0.04-0.02,0.01c0.02-0.02,0.05-0.03,0.07-0.04c-0.12,0.06,0.03,0,0.07-0.01
			c-0.13,0.03,0.04,0.01,0.07,0.01c-0.12-0.01,0.03,0.01,0.06,0.02c-0.04-0.01-0.07-0.03-0.05-0.02c-0.03-0.03-0.05-0.07-0.06-0.11
			c-0.01-0.07-0.01-0.09-0.01-0.04c0-0.03,0.01-0.05,0.02-0.08c-0.02,0.04-0.04,0.08-0.04,0.12c0.05-0.07,0.11-0.14,0.16-0.21
			c-0.13,0.07-0.35,0.03-0.51,0C79.11,13.73,78.83,13.58,78.7,13.74"/>
	</defs>
	<defs>
		<path id="SVGID_7_" d="M78.59,14.06c-0.6,1.06,1.3,1.23,1.87,1.29c0.66,0.06,1.28-0.06,1.88-0.33c0.58-0.27,1.29-0.75,1.39-1.43
			c0-0.02-0.01-0.03-0.03-0.03c-0.47,0.1-0.83,0.45-1.21,0.72c-0.45,0.31-1.04,0.56-1.59,0.62c-0.51,0.05-1.9-0.01-1.9-0.72
			C78.99,13.96,78.69,13.87,78.59,14.06"/>
	</defs>
	<defs>
		<path id="SVGID_8_" d="M78.55,13.94c-0.07,0.09-0.13,0.18-0.12,0.3c0,0.15,0.07,0.26,0.16,0.37c0.04,0.04,0.11,0.06,0.16,0.04
			c0.07-0.02,0.09-0.06,0.11-0.11c0.04-0.09-0.05-0.17-0.09-0.24c-0.06-0.11-0.11-0.21-0.14-0.33
			C78.63,13.92,78.57,13.9,78.55,13.94"/>
	</defs>
	<defs>
		<path id="SVGID_9_" d="M31.09,22.62c1.02,0.14,1.65,1.11,2.45,1.63c0.07,0.05,0.15-0.02,0.16-0.09c0.07-0.61-0.48-1.02-0.93-1.35
			c-0.48-0.36-1.07-0.67-1.68-0.72C30.74,22.06,30.76,22.58,31.09,22.62"/>
	</defs>
	<defs>
		<path id="SVGID_10_" d="M30.87,22.57c0.32,0.14,0.56,0.36,0.77,0.63c0.18,0.22,0.41,0.65,0.72,0.7c0.07,0.01,0.15-0.02,0.16-0.09
			c0.07-0.35-0.28-0.74-0.49-1c-0.26-0.31-0.6-0.55-0.97-0.68C30.81,22.02,30.62,22.46,30.87,22.57"/>
	</defs>
	<defs>
		<path id="SVGID_11_" d="M42.85,25.39c0,0-0.23-1.13,0.68-0.67c0.9,0.45,1.12,1.12,1.24,2.92c0.11,1.8-0.73,4.72-1.94,9.47
			c0,0-2.45,6.87,0.42,8.36c0.79,0.41,1.77-3.53,2.87-7.62c0.65-2.43,3.04-13.24,3.04-13.24v-0.85c0,0,1.41-0.67,2.14,0.73
			c0.73,1.41,1.01,3.83,1.01,3.83s1.41-4.81,1.97-5.1c0.56-0.3,0.84-0.27,1.13,0c0,0-0.84,0.89-1.13,1.79
			c-0.28,0.9-1.63,5.63-1.63,6.58c0,0.96-0.06,8.16,1.18,10.29c0,0-0.81,0.65-1.8,0.11c-0.62-0.34-1.29-3.82-1.29-4.13
			c0,0-1.37,4.79-2.46,7.33c-1.04,2.43-1.96,4.77-5.25,3.78c-1.19-0.36,1.43-0.38,1.95-0.72c0.76-0.49,1.46-1.14,2.14-2.63
			c0.36-0.78,2.95-8.13,3.23-10.32c0,0-0.39-7.09-0.62-7.99c0,0-0.17-0.22-0.73,2.7c-0.56,2.92-2.86,13.3-3.88,14.85
			c-1.07,1.63-2.14,1.66-2.76,1.03c-0.62-0.63-2.25-1.36-1.35-8.03c0,0,1.41-6.84,1.74-8.97C43.07,26.74,42.85,25.39,42.85,25.39"/>
	</defs>
	<defs>
		<path id="SVGID_12_" d="M44.42,26.27c0,0,1.01-1.27,1.29-1.1c0.28,0.17,0.49,0.34,0.49,2.59c0,2.25-0.53,6.35-2.15,8.42
			c-1.37,1.76-4.3,0.69-4.3-1.11c0,0-0.79-0.39-0.73,0.34c0.06,0.73,1.9,3.23,4.22,2.14c1.65-0.78,1.94-1.68,2.77-3.97
			c0.92-2.53,1.35-6.72,0.53-8.21c-0.79-1.43-2.07-0.05-2.29,0.49L44.42,26.27z"/>
	</defs>
	<defs>
		<path id="SVGID_13_" d="M45.38,24.95c0.94-0.45,0.88,1.91,0.89,2.34c0,0.29,0.08,0.51,0.14,0.79c0.05,0.28,0.04,0.57,0.05,0.85
			c0.01,0.24-0.04,0.73,0.22,0.86c0.04,0.02,0.11,0.01,0.13-0.04c0.15-0.31,0.05-0.83,0.05-1.17c0-0.17-0.01-0.35,0.02-0.51
			c0.02-0.16,0.11-0.31,0.11-0.47c0-0.38-0.05-0.75-0.1-1.12c-0.08-0.56-0.17-1.14-0.54-1.59c-0.31-0.37-0.67-0.16-0.97,0.04
			C45.36,24.94,45.37,24.96,45.38,24.95"/>
	</defs>
	<defs>
		<path id="SVGID_14_" d="M63.66,36.31c0.06,0.18,0.15,0.38,0.24,0.58c0.12,0.02,0.24,0.07,0.35,0.16c0.09,0.07,0.17,0.14,0.25,0.21
			c-0.32-2.49,0.64-5.74,0.64-5.74c0.94-4.81,1.62-7.78,1.41-9.57c-0.21-1.79-0.48-2.45-1.4-2.85c-0.92-0.4-0.64,0.71-0.64,0.71
			s0.3,1.34,0.08,3.49c-0.22,2.15-1.24,9.06-1.24,9.06c-0.11,1.39-0.13,2.52-0.08,3.44C63.44,35.91,63.58,36.08,63.66,36.31"/>
	</defs>
	<defs>
		<path id="SVGID_15_" d="M66.14,20.6c0,0,0.94-1.32,1.23-1.17c0.29,0.15,0.5,0.31,0.63,2.56c0.12,2.24-0.18,6.36-1.68,8.53
			c-1.27,1.83-4.26,0.93-4.36-0.87c0,0-0.81-0.35-0.71,0.38c0.1,0.73,2.07,3.12,4.33,1.9c1.6-0.87,1.84-1.78,2.55-4.12
			c0.78-2.58,0.98-6.78,0.07-8.23c-0.86-1.38-2.07,0.06-2.26,0.61L66.14,20.6z"/>
	</defs>
	<defs>
		<path id="SVGID_16_" d="M67.03,19.23c0.91-0.5,0.99,1.84,1.01,2.26c0.04,0.55,0.22,1.08,0.28,1.64c0.03,0.24,0,0.74,0.26,0.85
			c0.04,0.02,0.11,0.02,0.14-0.03c0.14-0.32,0.01-0.82-0.01-1.16c-0.01-0.35,0.03-0.64,0.07-0.98c0.04-0.34-0.1-0.78-0.16-1.12
			c-0.1-0.55-0.24-1.14-0.63-1.57c-0.33-0.36-0.68-0.14-0.98,0.09C67,19.22,67.01,19.24,67.03,19.23"/>
	</defs>
	<defs>
		<path id="SVGID_17_" d="M55.92,22.35c-0.05-0.11-0.22-0.9,0.43-0.62c0.64,0.28,1.77,0.96,2.05,2.16c0,0,0.51,1.63-0.34,7.37
			c-0.85,5.74-1.97,10.55-2.53,13.36c-0.56,2.81-1.85,6.45-2.75,7.87c-0.45,0.71,0.3-4.01,0.79-5.91
			c0.96-3.71,2.14-14.25,2.53-17.33C56.74,24.15,55.92,22.35,55.92,22.35"/>
	</defs>
	<defs>
		<path id="SVGID_18_" d="M58.44,32.26c0,0,0.46,0.33-0.27,1.18c-0.63,0.72-0.81,3.79-0.45,4.93c0.34,1.08,1.35,2.43,1.86,1.2
			c0.51-1.24,0.9-3.82,1.18-6.08c0.2-1.62,0.62-9.73,0.06-11.25c0,0-1.53,0.79-2.4,3.72l-0.36-1.47c0,0,0.95-1.74,1.35-2.25
			c0.39-0.51,1.52-1.63,2.14-1.29c0.62,0.34,1.16,0.23,1.35,2.59c0.33,3.99-0.14,8.4-1.29,13.23c-0.79,3.29-1.74,3.78-2.31,3.93
			c-0.46,0.12-1.42-0.56-1.82-1.24c-0.67-1.15-0.82-2.41-0.71-3.65C56.88,34.56,57.75,32.43,58.44,32.26"/>
	</defs>
	<defs>
		<path id="SVGID_19_" d="M64.51,37.26c0,0,0.44,1.56,1.22,1.3c0.24-0.08,1.03-0.82,1.77-2.49c0.83-1.89,1.66-4.27,1.96-8.2
			c0,0,0.24-0.79,0.46,0c0.23,0.79,0.07,2.62-0.22,3.41c-0.3,0.79-0.56,4.02-2.68,6.72c-1.34,1.72-1.63,1.42-2.33,1.07
			c-1.36-0.68-1.41-3.54-1.41-3.54"/>
	</defs>
	<defs>
		<path id="SVGID_20_" d="M78.19,24.55c-0.58-0.65-0.73,0.36-0.73,0.36c0.14,0.72,0.36,1.64-0.45,5.2
			c-0.79,3.52-1.29,3.43-1.29,3.43c-1.24-2.69-0.34-6.69,0-9.05c0.34-2.36,1.07-6.25,1.12-7.37c0.05-1.12-0.96-3.15-0.96-3.15
			l-1.29,0.84c0.62,0.96,0.28,5.51-0.28,8.72c-0.42,2.41-0.56,5.36-0.71,7.06l0,0c0.02,0.11,0,0.33,0,0.33c0,0,0,0,0,0
			c0.04,0.13,0.11,0.31,0.11,0.37c0.07,0.07,0.1,0.08,0.13,0.09c0,0,0-0.01,0-0.01c0,0.01,0,0.01,0,0.01
			c0.02,0.01,0.02,0.02,0.03,0.06c0.18,0.37,0.38,0.79,0.35,0.9c-0.02-0.06-0.19-0.49-0.35-0.88c0,0.02,0,0.06,0,0.11
			c0,0.17,0,0.33,0,0.5c0.41,1.02,1.41,2.77,1.84,2.78c0.56,0.02,1.52-2.95,2.02-5.48C78.25,26.85,78.19,24.55,78.19,24.55z"/>
	</defs>
	<defs>
		<path id="SVGID_21_" d="M70.27,32.9c0.07,0.16,0.15,0.34,0.25,0.52c0.11,0.01,0.22,0.05,0.33,0.13c0.08,0.06,0.16,0.11,0.24,0.18
			c-0.4-2.25,0.32-5.24,0.32-5.24c0.64-4.41,1.13-7.13,0.86-8.75c-0.27-1.62-0.54-2.2-1.39-2.53c-0.86-0.32-0.55,0.67-0.55,0.67
			s0.33,1.2,0.23,3.16c-0.1,1.96-0.73,8.27-0.73,8.27c-0.04,1.26,0,2.29,0.09,3.12C70.05,32.55,70.18,32.7,70.27,32.9"/>
	</defs>
	<defs>
		<path id="SVGID_22_" d="M74.2,30.82c-0.22,0.85-0.47,1.59-0.73,2.26c-0.59,1.55-1.29,2.25-1.5,2.33c-0.7,0.27-0.89-1.69-0.89-1.69
			l-1.19-1.52c0,0-0.11,3.16,1.15,3.72c0.65,0.29,0.93,0.54,2.07-1.08c0.87-1.22,1.34-2.54,1.62-3.66c-0.21-0.06-0.12,0.1-0.26-0.08
			"/>
	</defs>
	<defs>
		<path id="SVGID_23_" d="M75.52,34.72l-1.9-3.8C73.69,31.32,73.63,33.1,75.52,34.72z"/>
	</defs>
	<defs>
		<path id="SVGID_24_" d="M70.34,8.32c0.96,0.17,0.68,1.94,0.58,2.61c-0.1,0.7-0.33,1.33-0.72,1.92c-0.38,0.59-1.1,0.97-1.38,1.62
			c-0.31,0.71,0.71,1.13,0.97,0.41c0.14-0.39,0.47-0.72,0.73-1.04c0.32-0.39,0.58-0.81,0.79-1.27c0.29-0.62,0.37-1.29,0.39-1.97
			c0.03-0.89-0.15-2.5-1.33-2.5C70.26,8.11,70.22,8.3,70.34,8.32"/>
	</defs>
	<defs>
		<path id="SVGID_25_" d="M70.44,14.9c-0.3,0.38-0.33,0.84-0.08,1.26c0.26,0.45,0.8,0.59,1.27,0.41c0.77-0.29,1.19-1.46,0.92-2.21
			c-0.18-0.49-0.66-0.79-1.18-0.68c-0.41,0.09-0.66,0.44-0.79,0.81c-0.13,0.4-0.03,0.85,0.23,1.17c0.33,0.4,1.12,0.51,1.38-0.03
			c0.08-0.17,0.12-0.39,0-0.55c-0.08-0.11-0.15-0.2-0.28-0.26c-0.06-0.03-0.34-0.16-0.18-0.08c0.05,0.03,0.08,0.07,0.11,0.12
			c-0.03-0.06-0.03-0.05,0.01,0.04c-0.06-0.17-0.02,0.08-0.01-0.1c-0.01,0.22,0.07-0.12-0.02,0.07c0.04-0.06,0.03-0.05-0.03,0.03
			c0.05-0.05,0.04-0.04-0.04,0.02c-0.11,0.07-0.23,0.05-0.33,0c-0.04-0.03-0.07-0.06-0.1-0.1c-0.09-0.14,0,0.07-0.01-0.07
			c0.03,0.26-0.09,0.58-0.23,0.72c0.02-0.03,0.05-0.05,0.09-0.06c-0.12,0.02-0.09,0.03,0.08,0.02c0.11,0.02,0.14,0.14,0.04-0.02
			c-0.04-0.07-0.03-0.13-0.1-0.24c-0.08-0.11-0.19-0.22-0.23-0.26C70.84,14.77,70.57,14.74,70.44,14.9"/>
	</defs>
	<defs>
		<path id="SVGID_26_" d="M69,14.8c0.14,0.65,0.75,0.44,1.18,0.13c0.28-0.2,0.54-0.47,0.91-0.41c0.38,0.05,0.5,0.35,0.43,0.71
			c-0.07,0.36,0.35,0.64,0.63,0.37c0.37-0.37,0.56-0.81,0.3-1.32c-0.22-0.43-0.63-0.68-1.1-0.74c-0.52-0.06-0.97,0.12-1.36,0.44
			c-0.14,0.11-0.71,0.95-0.88,0.76C69.06,14.69,68.99,14.74,69,14.8"/>
	</defs>
	<defs>
		<path id="SVGID_27_" d="M69.61,14.92c0.16-0.04,0.41-0.01,0.57-0.01c0.13,0.01,0.31,0.05,0.43,0.11c0.11,0.05,0.16,0.12,0.18,0.24
			c0.02,0.1,0.08,0.18,0.15,0.26c0.05,0.05,0.02,0.22,0.05,0.3c0.02,0.06,0.09,0.09,0.15,0.06c0.2-0.11,0.43-0.5,0.43-0.72
			c-0.01-0.3-0.23-0.58-0.49-0.72c-0.22-0.11-0.56-0.19-0.79-0.09c-0.13,0.05-0.27,0.07-0.4,0.13c-0.15,0.06-0.22,0.17-0.35,0.25
			C69.44,14.79,69.5,14.95,69.61,14.92"/>
	</defs>
	<defs>
		<path id="SVGID_28_" d="M70.6,13.8c0.14,0.01,0.27,0.12,0.42,0.13c0.18,0.01,0.33,0.07,0.5,0.12c0.34,0.1,0.24,0.37,0.12,0.6
			c-0.25,0.48-0.83,1.03-0.67,1.62c0.05,0.17,0.22,0.26,0.39,0.22c0.43-0.09,0.74-0.54,0.97-0.87c0.27-0.37,0.49-0.83,0.46-1.3
			c-0.02-0.47-0.38-0.83-0.82-0.94c-0.24-0.07-0.51-0.04-0.73,0.05c-0.13,0.05-0.29,0.05-0.43,0.1c-0.09,0.04-0.12,0.1-0.24,0.11
			C70.49,13.67,70.52,13.8,70.6,13.8"/>
	</defs>
	<defs>
		<path id="SVGID_29_" d="M78.31,31.53c0.07,0.16,0.15,0.34,0.25,0.52c0.11,0.01,0.22,0.05,0.33,0.13c0.09,0.06,0.16,0.12,0.24,0.18
			c-0.4-2.25,0.32-5.24,0.32-5.24c0.64-4.41,1.13-7.13,0.85-8.74c-0.27-1.62-0.54-2.21-1.39-2.53c-0.86-0.32-0.55,0.67-0.55,0.67
			s0.33,1.2,0.23,3.16c-0.1,1.96-0.73,8.27-0.73,8.27c-0.04,1.27,0,2.29,0.09,3.12C78.1,31.17,78.23,31.32,78.31,31.53"/>
	</defs>
	<defs>
		<path id="SVGID_30_" d="M82.52,28.88c-0.22,0.85-0.47,1.58-0.73,2.25c-0.59,1.55-1.29,2.25-1.5,2.34
			c-0.7,0.27-1.17-1.12-1.17-1.12l-1.19-1.52c0,0,0.17,2.6,1.44,3.15c0.65,0.29,0.93,0.54,2.07-1.08c0.87-1.22,1.34-2.54,1.62-3.66
			C82.85,29.18,82.65,29.06,82.52,28.88"/>
	</defs>
	<defs>
		<path id="SVGID_31_" d="M79.29,16.03c0,0,3.01-0.25,3.77,1.12c0.76,1.37,0.54,6.52-1.85,7.58c0,0,0.75-1.08,0.98-1.72
			c0.22-0.65,0.28-2.49,0.06-4.02c-0.23-1.53-0.19-1.92-0.85-2.26c-0.66-0.34-1.66-0.27-1.66-0.27L79.29,16.03z"/>
	</defs>
	<defs>
		<path id="SVGID_32_" d="M41.09,14.82c0,0-0.55,0.04-0.9,0.98c-0.51,1.36,0.01,3.08,2.7,4.46c0.88,0.45,4.86,1.23,8.87,0.63
			c2.98-0.45,9.66-2.41,13.27-4.61c3.61-2.19,9.96-5.34,13.17-5.68c3.21-0.34,5.68-0.23,6.02,0c0.34,0.23,1.18-0.45-1.86-1.07
			c-3.04-0.62-6.69,0.34-8.49,0.96c-1.8,0.62-5.54,2.37-7.27,3.07c-1.73,0.7-5.1,2.09-7.41,2.24c-2.31,0.15-3.93,0.64-3.59-0.73
			c0,0-1.23,0.94,0,1.44c1.23,0.51,4.57,0.28,5.66,0c0,0-6.05,2.2-8.61,2.56c-2.56,0.36-8.44,1.07-10.72-0.65
			C39.59,16.65,41.09,14.82,41.09,14.82"/>
	</defs>
	<defs>
		<path id="SVGID_33_" d="M71.8,16.5c0,0,0.1,0.34,0.48,0c0.38-0.34,2.89-2.25,5.41-3.15c2.51-0.9,5.7-1.65,6.02-0.83
			c0.32,0.83-0.66,1.29-0.85,1.49l0.52,0.24c0,0,0.68-0.6,0.87-1.24c0.19-0.64-0.03-1.16-0.8-1.54c-0.77-0.37-3.81-0.3-6.21,0.41
			c-2.4,0.71-4.9,2.53-4.9,2.53l-0.53,1.97"/>
	</defs>
	<defs>
		<path id="SVGID_34_" d="M75.88,14.2c0,0-0.8-1.99-1.53-2.54l-1.4,0.16c0,0,1.31,1.09,1.63,3l0.62,0.24L75.88,14.2z"/>
	</defs>
	<defs>
		<path id="SVGID_35_" d="M78.46,13.82c-0.15,0.24-0.02,0.6,0.11,0.81c0.17,0.27,0.55-0.05,0.33-0.26
			c-0.11-0.11-0.19-0.28-0.15-0.44C78.78,13.77,78.56,13.67,78.46,13.82"/>
	</defs>
	<defs>
		<path id="SVGID_36_" d="M78.58,13.59c-0.33,0.36-0.3,1.08,0.19,1.3c0.23,0.1,0.47-0.16,0.28-0.36c-0.13-0.13-0.22-0.2-0.26-0.39
			c-0.04-0.15-0.01-0.32-0.01-0.47C78.77,13.58,78.65,13.51,78.58,13.59"/>
	</defs>
	<defs>
		<path id="SVGID_37_" d="M36.72,24.02c-0.56,0.13-1.12,0.47-1.61,0.77c-0.28,0.17-0.53,0.38-0.79,0.57
			c-0.25,0.18-0.49,0.3-0.62,0.59c-0.04,0.09,0.01,0.19,0.11,0.2c0.52,0.04,1.02-0.45,1.44-0.73c0.54-0.36,1.09-0.75,1.6-1.16
			C36.97,24.16,36.84,23.99,36.72,24.02"/>
	</defs>
	<use xlink:href="#SVGID_1_"  style="overflow:visible;fill:#FFFFFF;"/>
	<use xlink:href="#SVGID_2_"  style="overflow:visible;fill:#FFFFFF;"/>
	<use xlink:href="#SVGID_3_"  style="overflow:visible;fill:#FFFFFF;"/>
	<use xlink:href="#SVGID_4_"  style="overflow:visible;fill:#FFFFFF;"/>
	<use xlink:href="#SVGID_5_"  style="overflow:visible;fill:#FFFFFF;"/>
	<use xlink:href="#SVGID_6_"  style="overflow:visible;fill:#FFFFFF;"/>
	<use xlink:href="#SVGID_7_"  style="overflow:visible;fill:#FFFFFF;"/>
	<use xlink:href="#SVGID_8_"  style="overflow:visible;fill:#FFFFFF;"/>
	<use xlink:href="#SVGID_9_"  style="overflow:visible;fill:#FFFFFF;"/>
	<use xlink:href="#SVGID_10_"  style="overflow:visible;fill:#FFFFFF;"/>
	<use xlink:href="#SVGID_11_"  style="overflow:visible;fill:#FFFFFF;"/>
	<use xlink:href="#SVGID_12_"  style="overflow:visible;fill:#FFFFFF;"/>
	<use xlink:href="#SVGID_13_"  style="overflow:visible;fill:#FFFFFF;"/>
	<use xlink:href="#SVGID_14_"  style="overflow:visible;fill:#FFFFFF;"/>
	<use xlink:href="#SVGID_15_"  style="overflow:visible;fill:#FFFFFF;"/>
	<use xlink:href="#SVGID_16_"  style="overflow:visible;fill:#FFFFFF;"/>
	<use xlink:href="#SVGID_17_"  style="overflow:visible;fill:#FFFFFF;"/>
	<use xlink:href="#SVGID_18_"  style="overflow:visible;fill:#FFFFFF;"/>
	<use xlink:href="#SVGID_19_"  style="overflow:visible;fill:#FFFFFF;"/>
	<use xlink:href="#SVGID_20_"  style="overflow:visible;fill:#FFFFFF;"/>
	<use xlink:href="#SVGID_21_"  style="overflow:visible;fill:#FFFFFF;"/>
	<use xlink:href="#SVGID_22_"  style="overflow:visible;fill:#FFFFFF;"/>
	<use xlink:href="#SVGID_23_"  style="overflow:visible;fill:#FFFFFF;"/>
	<use xlink:href="#SVGID_24_"  style="overflow:visible;fill:#FFFFFF;"/>
	<use xlink:href="#SVGID_25_"  style="overflow:visible;fill:#FFFFFF;"/>
	<use xlink:href="#SVGID_26_"  style="overflow:visible;fill:#FFFFFF;"/>
	<use xlink:href="#SVGID_27_"  style="overflow:visible;fill:#FFFFFF;"/>
	<use xlink:href="#SVGID_28_"  style="overflow:visible;fill:#FFFFFF;"/>
	<use xlink:href="#SVGID_29_"  style="overflow:visible;fill:#FFFFFF;"/>
	<use xlink:href="#SVGID_30_"  style="overflow:visible;fill:#FFFFFF;"/>
	<use xlink:href="#SVGID_31_"  style="overflow:visible;fill:#FFFFFF;"/>
	<use xlink:href="#SVGID_32_"  style="overflow:visible;fill:#FFFFFF;"/>
	<use xlink:href="#SVGID_33_"  style="overflow:visible;fill:#FFFFFF;"/>
	<use xlink:href="#SVGID_34_"  style="overflow:visible;fill:#FFFFFF;"/>
	<use xlink:href="#SVGID_35_"  style="overflow:visible;fill:#FFFFFF;"/>
	<use xlink:href="#SVGID_36_"  style="overflow:visible;fill:#FFFFFF;"/>
	<use xlink:href="#SVGID_37_"  style="overflow:visible;fill:#FFFFFF;"/>
	<clipPath id="SVGID_38_">
		<use xlink:href="#SVGID_1_"  style="overflow:visible;"/>
	</clipPath>
	<clipPath id="SVGID_39_" class="st0">
		<use xlink:href="#SVGID_2_"  style="overflow:visible;"/>
	</clipPath>
	<clipPath id="SVGID_40_" class="st1">
		<use xlink:href="#SVGID_3_"  style="overflow:visible;"/>
	</clipPath>
	<clipPath id="SVGID_41_" class="st2">
		<use xlink:href="#SVGID_4_"  style="overflow:visible;"/>
	</clipPath>
	<clipPath id="SVGID_42_" class="st3">
		<use xlink:href="#SVGID_5_"  style="overflow:visible;"/>
	</clipPath>
	<clipPath id="SVGID_43_" class="st4">
		<use xlink:href="#SVGID_6_"  style="overflow:visible;"/>
	</clipPath>
	<clipPath id="SVGID_44_" class="st5">
		<use xlink:href="#SVGID_7_"  style="overflow:visible;"/>
	</clipPath>
	<clipPath id="SVGID_45_" class="st6">
		<use xlink:href="#SVGID_8_"  style="overflow:visible;"/>
	</clipPath>
	<clipPath id="SVGID_46_" class="st7">
		<use xlink:href="#SVGID_9_"  style="overflow:visible;"/>
	</clipPath>
	<clipPath id="SVGID_47_" class="st8">
		<use xlink:href="#SVGID_10_"  style="overflow:visible;"/>
	</clipPath>
	<clipPath id="SVGID_48_" class="st9">
		<use xlink:href="#SVGID_11_"  style="overflow:visible;"/>
	</clipPath>
	<clipPath id="SVGID_49_" class="st10">
		<use xlink:href="#SVGID_12_"  style="overflow:visible;"/>
	</clipPath>
	<clipPath id="SVGID_50_" class="st11">
		<use xlink:href="#SVGID_13_"  style="overflow:visible;"/>
	</clipPath>
	<clipPath id="SVGID_51_" class="st12">
		<use xlink:href="#SVGID_14_"  style="overflow:visible;"/>
	</clipPath>
	<clipPath id="SVGID_52_" class="st13">
		<use xlink:href="#SVGID_15_"  style="overflow:visible;"/>
	</clipPath>
	<clipPath id="SVGID_53_" class="st14">
		<use xlink:href="#SVGID_16_"  style="overflow:visible;"/>
	</clipPath>
	<clipPath id="SVGID_54_" class="st15">
		<use xlink:href="#SVGID_17_"  style="overflow:visible;"/>
	</clipPath>
	<clipPath id="SVGID_55_" class="st16">
		<use xlink:href="#SVGID_18_"  style="overflow:visible;"/>
	</clipPath>
	<clipPath id="SVGID_56_" class="st17">
		<use xlink:href="#SVGID_19_"  style="overflow:visible;"/>
	</clipPath>
	<clipPath id="SVGID_57_" class="st18">
		<use xlink:href="#SVGID_20_"  style="overflow:visible;"/>
	</clipPath>
	<clipPath id="SVGID_58_" class="st19">
		<use xlink:href="#SVGID_21_"  style="overflow:visible;"/>
	</clipPath>
	<clipPath id="SVGID_59_" class="st20">
		<use xlink:href="#SVGID_22_"  style="overflow:visible;"/>
	</clipPath>
	<clipPath id="SVGID_60_" class="st21">
		<use xlink:href="#SVGID_23_"  style="overflow:visible;"/>
	</clipPath>
	<clipPath id="SVGID_61_" class="st22">
		<use xlink:href="#SVGID_24_"  style="overflow:visible;"/>
	</clipPath>
	<clipPath id="SVGID_62_" class="st23">
		<use xlink:href="#SVGID_25_"  style="overflow:visible;"/>
	</clipPath>
	<clipPath id="SVGID_63_" class="st24">
		<use xlink:href="#SVGID_26_"  style="overflow:visible;"/>
	</clipPath>
	<clipPath id="SVGID_64_" class="st25">
		<use xlink:href="#SVGID_27_"  style="overflow:visible;"/>
	</clipPath>
	<clipPath id="SVGID_65_" class="st26">
		<use xlink:href="#SVGID_28_"  style="overflow:visible;"/>
	</clipPath>
	<clipPath id="SVGID_66_" class="st27">
		<use xlink:href="#SVGID_29_"  style="overflow:visible;"/>
	</clipPath>
	<clipPath id="SVGID_67_" class="st28">
		<use xlink:href="#SVGID_30_"  style="overflow:visible;"/>
	</clipPath>
	<clipPath id="SVGID_68_" class="st29">
		<use xlink:href="#SVGID_31_"  style="overflow:visible;"/>
	</clipPath>
	<clipPath id="SVGID_69_" class="st30">
		<use xlink:href="#SVGID_32_"  style="overflow:visible;"/>
	</clipPath>
	<clipPath id="SVGID_70_" class="st31">
		<use xlink:href="#SVGID_33_"  style="overflow:visible;"/>
	</clipPath>
	<clipPath id="SVGID_71_" class="st32">
		<use xlink:href="#SVGID_34_"  style="overflow:visible;"/>
	</clipPath>
	<clipPath id="SVGID_72_" class="st33">
		<use xlink:href="#SVGID_35_"  style="overflow:visible;"/>
	</clipPath>
	<clipPath id="SVGID_73_" class="st34">
		<use xlink:href="#SVGID_36_"  style="overflow:visible;"/>
	</clipPath>
	<clipPath id="SVGID_74_" class="st35">
		<use xlink:href="#SVGID_37_"  style="overflow:visible;"/>
	</clipPath>
</g>
</svg>
